# xmcd
#
# Track frame offsets:
#	150
#	13390
#	25330
#	38885
#	50642
#	63620
#	75770
#	89285
#	99782
#	113565
#	127387
#	140207
#	153437
#	163870
#	174467
#	188382
#	200830
#	214492
#	226925
#	237715
#	246960
#	257570
#	269025
#	281397
#	294737
#	307875
#	316557
#	329132
#
# Disc length: 4528 seconds
#
# Revision: 0
# Processed by: cddbd v1.5.2PL0 Copyright (c) Steve Scherf et al.
# Submitted via: EZCDAudioConverter 1.0.8.1
#
DISCID=a311ae1c
DTITLE=Slim Whitman - Rose Marie - Disc 3 of 6
DYEAR=1996
DGENRE=Country
TTITLE0=Blue Eyes Crying In The Rain
TTITLE1=When My Blue Moon Turns To Gold Again
TTITLE2=That Silver Haired Daddy Of Mine
TTITLE3=A Petal From A Faded Rose
TTITLE4=I'll Never Take You Back Again
TTITLE5=Song Of The Wild
TTITLE6=Lord Protect My Darling
TTITLE7=Cryin' For The Moon
TTITLE8=Roll On Silvery Moon
TTITLE9=Haunted Hungry Heart
TTITLE10=I Talk To The Waves
TTITLE11=At The End Of Nowhere
TTITLE12=I'll Never Stop Loving You
TTITLE13=Song Of The Wild
TTITLE14=Tumbling Tumbleweeds
TTITLE15=Tell Me
TTITLE16=I'll Take You Home Again, Kathleen
TTITLE17=I'm A Fool
TTITLE18=Serenade
TTITLE19=The First One To Find The Rainbow
TTITLE20=Brahms' Lullaby
TTITLE21=In The Valley Of The Moon
TTITLE22=Dear Mary
TTITLE23=I'll Take You Home Again, Kathleen
TTITLE24=Dear Mary
TTITLE25=Cryin' For The Moon
TTITLE26=The Whiffenpoof Song
TTITLE27=Curtain Of Tears
EXTD=
EXTT0=
EXTT1=
EXTT2=
EXTT3=
EXTT4=
EXTT5=
EXTT6=
EXTT7=
EXTT8=
EXTT9=
EXTT10=
EXTT11=
EXTT12=
EXTT13=
EXTT14=
EXTT15=
EXTT16=
EXTT17=
EXTT18=
EXTT19=
EXTT20=
EXTT21=
EXTT22=
EXTT23=
EXTT24=
EXTT25=
EXTT26=
EXTT27=
PLAYORDER=
